<svg width="0" height="0" class="hidden">
  <symbol fill="none" xmlns="http://www.w3.org/2000/svg" viewBox="0 0 48 48" id="apple">
    <g clip-path="url(#clip0_232_27)">
      <path d="M37.0995 25.5009C37.1669 32.7649 43.4719 35.1821 43.5417 35.2129C43.4884 35.3833 42.5343 38.6576 40.22 42.0398C38.2193 44.9639 36.143 47.8772 32.8721 47.9375C29.6581 47.9967 28.6246 46.0317 24.9501 46.0317C21.2767 46.0317 20.1284 47.8773 17.086 47.9968C13.9288 48.1164 11.5244 44.8349 9.50729 41.9215C5.38529 35.9622 2.23523 25.0819 6.46496 17.7375C8.5662 14.0902 12.3213 11.7806 16.3971 11.7214C19.4974 11.6622 22.4237 13.8072 24.3191 13.8072C26.2132 13.8072 29.7693 11.2277 33.5078 11.6065C35.0728 11.6717 39.466 12.2387 42.2868 16.3678C42.0595 16.5087 37.045 19.428 37.0995 25.5009ZM31.0591 7.66392C32.7353 5.63493 33.8635 2.8104 33.5558 0C31.1396 0.0971082 28.218 1.61004 26.4849 3.63792C24.9318 5.43369 23.5716 8.30794 23.9386 11.0627C26.6317 11.2711 29.3828 9.69419 31.0591 7.66392Z" fill="black"></path>
    </g>
    <defs>
      <clipPath id="clip0_232_27">
        <rect width="48" height="48" fill="white"></rect>
      </clipPath>
    </defs>
  </symbol>
  <symbol fill="none" xmlns="http://www.w3.org/2000/svg" viewBox="0 0 64 64" id="email">
    <path d="M54.6666 17.3333V25.2133L38.5066 35.76L32 40L25.4933 35.76L7.99997 24.3466V3.99995C7.99252 3.64772 8.0564 3.29762 8.18778 2.97071C8.31915 2.64381 8.5153 2.34686 8.76443 2.09774C9.01355 1.84862 9.3105 1.65247 9.6374 1.52109C9.9643 1.38972 10.3144 1.32583 10.6666 1.33329H52C52.3522 1.32583 52.7023 1.38972 53.0292 1.52109C53.3561 1.65247 53.6531 1.84862 53.9022 2.09774C54.1513 2.34686 54.3475 2.64381 54.4788 2.97071C54.6102 3.29762 54.6741 3.64772 54.6666 3.99995V17.3333Z" fill="#F1F2F2"></path>
    <path d="M7.99998 17.3333V24.3466L1.33331 19.9999C1.33331 19.9999 2.66665 17.3333 7.99998 17.3333Z" fill="#FED049"></path>
    <path d="M62.1334 20.3466L54.6667 25.2133V17.3333H57.3334C58.3358 17.3337 59.3178 17.6166 60.1667 18.1496C61.0157 18.6826 61.6973 19.444 62.1334 20.3466Z" fill="#FED049"></path>
    <path d="M54.6667 25.2133L62.1333 20.3466C62.4865 21.0689 62.669 21.8626 62.6667 22.6666V57.3333C62.666 58.0882 62.5023 58.8341 62.1867 59.52L54.6667 52L38.6667 36L38.5067 35.76L54.6667 25.2133Z" fill="#F6B445"></path>
    <path d="M54.6667 51.9999L62.1867 59.5199C61.7677 60.4569 61.0865 61.2526 60.2253 61.8109C59.3641 62.3693 58.3597 62.6665 57.3334 62.6666H6.66669C5.64032 62.6665 4.63593 62.3693 3.77474 61.8109C2.91354 61.2526 2.23234 60.4569 1.81335 59.5199L9.33335 51.9999L25.3334 35.9999L25.4934 35.7599L32 39.9999L38.5067 35.7599L38.6667 35.9999L54.6667 51.9999Z" fill="#FED049"></path>
    <path d="M7.99998 24.3466L25.4933 35.7599L25.3333 35.9999L9.33331 51.9999L1.81331 59.5199C1.4977 58.8341 1.33396 58.0882 1.33331 57.3333V19.9999L7.99998 24.3466Z" fill="#F6B445"></path>
    <path d="M22.6667 15.9999C24.8758 15.9999 26.6667 14.2091 26.6667 11.9999C26.6667 9.7908 24.8758 7.99994 22.6667 7.99994C20.4575 7.99994 18.6667 9.7908 18.6667 11.9999C18.6667 14.2091 20.4575 15.9999 22.6667 15.9999Z" fill="#A4B0C0"></path>
    <path d="M57.3333 16H56V3.99995C56.0155 3.47046 55.9226 2.94339 55.7271 2.45109C55.5315 1.95878 55.2375 1.51163 54.8629 1.13706C54.4883 0.762494 54.0412 0.468419 53.5489 0.272881C53.0566 0.0773429 52.5295 -0.0155329 52 -4.71235e-05H10.6667C10.1372 -0.0155329 9.61011 0.0773429 9.1178 0.272881C8.6255 0.468419 8.17834 0.762494 7.80377 1.13706C7.42921 1.51163 7.13513 1.95878 6.93959 2.45109C6.74406 2.94339 6.65118 3.47046 6.66667 3.99995V17.3333C6.66667 17.6869 6.80714 18.026 7.05719 18.2761C7.30724 18.5261 7.64638 18.6666 8 18.6666C8.35362 18.6666 8.69276 18.5261 8.94281 18.2761C9.19286 18.026 9.33333 17.6869 9.33333 17.3333V3.99995C9.31572 3.82049 9.33811 3.63936 9.39889 3.46958C9.45966 3.29981 9.55732 3.14562 9.68483 3.01812C9.81234 2.89061 9.96653 2.79295 10.1363 2.73217C10.3061 2.67139 10.4872 2.64901 10.6667 2.66662H52C52.1795 2.64901 52.3606 2.67139 52.5304 2.73217C52.7001 2.79295 52.8543 2.89061 52.9818 3.01812C53.1093 3.14562 53.207 3.29981 53.2678 3.46958C53.3286 3.63936 53.3509 3.82049 53.3333 3.99995V17.3333C53.3333 17.6869 53.4738 18.026 53.7239 18.2761C53.9739 18.5261 54.313 18.6666 54.6667 18.6666H57.3333C57.8878 18.666 58.4364 18.7812 58.9438 19.0049C59.4512 19.2285 59.9063 19.5556 60.28 19.9653L32 38.408L2.06133 18.884C1.86021 18.7529 1.62743 18.6785 1.38756 18.6688C1.1477 18.659 0.909644 18.7142 0.698533 18.8285C0.487422 18.9428 0.311085 19.1119 0.188136 19.3181C0.0651877 19.5243 0.000188445 19.7599 0 20L0 57.3333C0.00211714 59.1007 0.705176 60.7952 1.95496 62.045C3.20474 63.2948 4.89921 63.9978 6.66667 64H57.3333C59.1008 63.9978 60.7953 63.2948 62.045 62.045C63.2948 60.7952 63.9979 59.1007 64 57.3333V22.6666C63.9979 20.8992 63.2948 19.2047 62.045 17.9549C60.7953 16.7051 59.1008 16.0021 57.3333 16ZM61.3333 57.3333C61.3333 58.3942 60.9119 59.4116 60.1618 60.1617C59.4116 60.9119 58.3942 61.3333 57.3333 61.3333H6.66667C5.6058 61.3333 4.58839 60.9119 3.83824 60.1617C3.08809 59.4116 2.66667 58.3942 2.66667 57.3333V22.4613L23.4387 36.008L8.39067 51.0573C8.26332 51.1803 8.16174 51.3274 8.09187 51.4901C8.02199 51.6528 7.9852 51.8277 7.98367 52.0048C7.98213 52.1818 8.01586 52.3574 8.0829 52.5212C8.14995 52.6851 8.24895 52.834 8.37414 52.9591C8.49933 53.0843 8.6482 53.1833 8.81206 53.2504C8.97592 53.3174 9.1515 53.3512 9.32854 53.3496C9.50557 53.3481 9.68053 53.3113 9.84321 53.2414C10.0059 53.1715 10.153 53.07 10.276 52.9426L25.7213 37.4973L31.272 41.116C31.4886 41.2571 31.7415 41.3322 32 41.3322C32.2585 41.3322 32.5114 41.2571 32.728 41.116L38.2787 37.4973L53.724 52.9426C53.9755 53.1855 54.3123 53.3199 54.6619 53.3169C55.0115 53.3138 55.3459 53.1736 55.5931 52.9264C55.8403 52.6792 55.9805 52.3448 55.9836 51.9952C55.9866 51.6456 55.8522 51.3088 55.6093 51.0573L40.5613 36.008L61.3333 22.4653C61.3333 22.532 61.3333 22.5986 61.3333 22.6666V57.3333Z" fill="#474C54"></path>
    <path d="M28 12C28 10.9451 27.6872 9.91398 27.1012 9.03692C26.5151 8.15986 25.6822 7.47627 24.7076 7.0726C23.7331 6.66894 22.6607 6.56332 21.6262 6.76911C20.5916 6.97489 19.6413 7.48285 18.8954 8.22873C18.1495 8.97461 17.6416 9.92491 17.4358 10.9595C17.23 11.994 17.3356 13.0664 17.7393 14.0409C18.143 15.0155 18.8265 15.8484 19.7036 16.4345C20.5807 17.0205 21.6118 17.3333 22.6666 17.3333C24.0811 17.3333 25.4377 16.7714 26.4379 15.7712C27.4381 14.771 28 13.4144 28 12ZM20 12C20 11.4725 20.1564 10.957 20.4494 10.5184C20.7424 10.0799 21.1589 9.73812 21.6462 9.53628C22.1334 9.33445 22.6696 9.28164 23.1869 9.38453C23.7042 9.48743 24.1793 9.7414 24.5523 10.1143C24.9252 10.4873 25.1792 10.9624 25.2821 11.4797C25.385 11.997 25.3322 12.5332 25.1303 13.0205C24.9285 13.5077 24.5867 13.9242 24.1482 14.2172C23.7096 14.5102 23.1941 14.6666 22.6666 14.6666C21.9594 14.6666 21.2811 14.3857 20.781 13.8856C20.2809 13.3855 20 12.7072 20 12Z" fill="#474C54"></path>
    <path d="M33.3333 9.33329H45.3333C45.687 9.33329 46.0261 9.19282 46.2761 8.94277C46.5262 8.69272 46.6667 8.35358 46.6667 7.99996C46.6667 7.64634 46.5262 7.3072 46.2761 7.05715C46.0261 6.8071 45.687 6.66663 45.3333 6.66663H33.3333C32.9797 6.66663 32.6406 6.8071 32.3905 7.05715C32.1405 7.3072 32 7.64634 32 7.99996C32 8.35358 32.1405 8.69272 32.3905 8.94277C32.6406 9.19282 32.9797 9.33329 33.3333 9.33329Z" fill="#474C54"></path>
    <path d="M33.3333 17.3333H45.3333C45.687 17.3333 46.0261 17.1928 46.2761 16.9428C46.5262 16.6927 46.6667 16.3536 46.6667 16C46.6667 15.6463 46.5262 15.3072 46.2761 15.0572C46.0261 14.8071 45.687 14.6666 45.3333 14.6666H33.3333C32.9797 14.6666 32.6406 14.8071 32.3905 15.0572C32.1405 15.3072 32 15.6463 32 16C32 16.3536 32.1405 16.6927 32.3905 16.9428C32.6406 17.1928 32.9797 17.3333 33.3333 17.3333Z" fill="#474C54"></path>
    <path d="M33.3333 25.3333H40C40.3536 25.3333 40.6928 25.1928 40.9428 24.9428C41.1929 24.6927 41.3333 24.3536 41.3333 24C41.3333 23.6463 41.1929 23.3072 40.9428 23.0571C40.6928 22.8071 40.3536 22.6666 40 22.6666H33.3333C32.9797 22.6666 32.6406 22.8071 32.3905 23.0571C32.1405 23.3072 32 23.6463 32 24C32 24.3536 32.1405 24.6927 32.3905 24.9428C32.6406 25.1928 32.9797 25.3333 33.3333 25.3333Z" fill="#474C54"></path>
  </symbol>
  <symbol fill="none" xmlns="http://www.w3.org/2000/svg" viewBox="0 0 48 48" id="google">
    <g clip-path="url(#clip0_232_7)">
      <path d="M47.428 24.449C47.428 22.4825 47.2684 21.0474 46.9231 19.5593H24.4672V28.4352H37.6483C37.3826 30.641 35.9476 33.9629 32.7585 36.1951L32.7138 36.4923L39.814 41.9927L40.3059 42.0418C44.8236 37.8694 47.428 31.7306 47.428 24.449Z" fill="#4285F4"></path>
      <path d="M24.4672 47.8351C30.9248 47.8351 36.3461 45.709 40.3059 42.0418L32.7585 36.1951C30.7389 37.6036 28.0282 38.5869 24.4672 38.5869C18.1424 38.5869 12.7742 34.4147 10.8606 28.6479L10.5802 28.6718L3.19732 34.3854L3.10077 34.6538C7.03384 42.4668 15.1127 47.8351 24.4672 47.8351Z" fill="#34A853"></path>
      <path d="M10.8606 28.6479C10.3557 27.1597 10.0635 25.5651 10.0635 23.9176C10.0635 22.2698 10.3557 20.6754 10.8341 19.1872L10.8207 18.8702L3.34535 13.0648L3.10077 13.1811C1.47976 16.4233 0.549622 20.0642 0.549622 23.9176C0.549622 27.7709 1.47976 31.4116 3.10077 34.6538L10.8606 28.6479Z" fill="#FBBC05"></path>
      <path d="M24.4672 9.24806C28.9583 9.24806 31.9878 11.188 33.7152 12.8092L40.4653 6.21856C36.3197 2.36519 30.9248 0 24.4672 0C15.1127 0 7.03384 5.36812 3.10077 13.1811L10.8341 19.1872C12.7742 13.4204 18.1424 9.24806 24.4672 9.24806Z" fill="#EB4335"></path>
    </g>
    <defs>
      <clipPath id="clip0_232_7">
        <rect width="48" height="48" fill="white"></rect>
      </clipPath>
    </defs>
  </symbol>
  <symbol fill="none" xmlns="http://www.w3.org/2000/svg" viewBox="0 0 48 48" id="microsoft">
    <g clip-path="url(#clip0_232_34)">
      <path d="M48 26.1818H26.1818V48H48V26.1818Z" fill="#FEBA08"></path>
      <path d="M21.8182 26.1818H0V48H21.8182V26.1818Z" fill="#05A6F0"></path>
      <path d="M48 0H26.1818V21.8182H48V0Z" fill="#80BC06"></path>
      <path d="M21.8182 0H0V21.8182H21.8182V0Z" fill="#F25325"></path>
    </g>
    <defs>
      <clipPath id="clip0_232_34">
        <rect width="48" height="48" fill="white"></rect>
      </clipPath>
    </defs>
  </symbol>
</svg>